<svg xmlns="http://www.w3.org/2000/svg" width="27.2819" height="39.7284" viewBox="0 0 27.2819 39.7284"><g id="Layer_2" data-name="Layer 2"><g id="Layer_1-2" data-name="Layer 1"><path d="M3.5757,13.47a45.14,45.14,0,0,0,1.983,4.256c.543.923,1.6026,2.4289,2.1268,2.3118,1.6527-.3692,1.62-1.84,1.3457-3.3861A27.0883,27.0883,0,0,1,8.3237,9.635C8.734,5.083,11.5032,2.0584,15.8722,0c-2.3161,5.3864-.2141,9.4405,3.187,13.172a59.1131,59.1131,0,0,1,5.99,6.853,13.7553,13.7553,0,0,1-5.2467,19.7034c1.9979-4.3122,1.8844-8.2269-1.419-12.2591,0,.877-.013,1.2867.0024,1.6952.0536,1.4294-.2092,2.94-1.9077,2.7485-.6339-.0714-1.35-1.7174-1.5643-2.7425-.4968-2.3788-.657-4.826-1.074-7.2245a4.0177,4.0177,0,0,0-1.2457-1.8633c.9286,3.9852-.7885,6.8686-3.3381,9.5832-2.7587,2.9372-2.6584,6.3332-.815,9.8252C3.147,38.8772-.9691,32.5207.2,26.8319a19.915,19.915,0,0,1,1.6-4.371c1.321-2.81,2.261-5.64,1.1654-8.7992Z" fill="#b52025"/></g></g></svg>